<svg xmlns="http://www.w3.org/2000/svg" xmlns:xlink="http://www.w3.org/1999/xlink" viewBox="0 0 400 400"><defs><style>.cls-1{fill:none;}.cls-2{isolation:isolate;}.cls-3{fill:url(#linear-gradient);}.cls-4{opacity:0.4;mix-blend-mode:darken;}.cls-5{clip-path:url(#clip-path);}.cls-6{fill:#fff;}</style><linearGradient id="linear-gradient" x2="400" y2="400" gradientUnits="userSpaceOnUse"><stop offset="0" stop-color="#99c568"/><stop offset="1" stop-color="#80b741"/></linearGradient><clipPath id="clip-path"><rect class="cls-1" width="400" height="400"/></clipPath></defs><g class="cls-2"><g id="social_media" data-name="social media"><rect class="cls-3" width="400" height="400"/><g class="cls-4"><g class="cls-5"><image width="2005" height="3000" transform="translate(499.25) rotate(90) scale(0.2)" xlink:href="../../../../../../../Job%20Application%20(Homebased)/GFinity%20PLC/Textures/paper%20GREY.jpg"/></g></g><path class="cls-6" d="M117.37,253.24c-30.08-.65-57.84-6.48-80.64-16,25.38,20.62,63.69,35.64,108.17,41.23A147.6,147.6,0,0,1,117.37,253.24Z"/><path class="cls-6" d="M363.27,178.23c0-37.46-35.09-70.22-87.5-88.14-25.15-8.61-54.29-13.81-85.46-14.44-2.2-.06-4.41-.08-6.63-.08a293.56,293.56,0,0,0-79.83,10.68c6.27-.47,12.68-.71,19.18-.71a245.69,245.69,0,0,1,52.81,5.6c26.88,5.93,49.94,16.25,66.47,29.42,17.28,13.76,27.45,30.64,27.45,48.86,0,27.55-23.22,52-59.08,67.28A208.28,208.28,0,0,1,157.47,251a149.06,149.06,0,0,0,40.11,50.81h0A145,145,0,0,0,266,332.59a149,149,0,0,1-42.86-54.18C303.32,268.15,363.27,227.19,363.27,178.23Z"/><path class="cls-6" d="M61.17,131.86H58.8v10.73a4.48,4.48,0,0,1-.93,3.12,3.19,3.19,0,0,1-2.44,1,3.1,3.1,0,0,1-2.5-1.05,4.65,4.65,0,0,1-.89-3.07V116.91a4.36,4.36,0,0,1,1-3.17,4.35,4.35,0,0,1,3.16-1h11a33.16,33.16,0,0,1,3.9.2,9.73,9.73,0,0,1,2.91.78,8.47,8.47,0,0,1,2.78,1.89,8.34,8.34,0,0,1,1.83,2.86,9.43,9.43,0,0,1,.63,3.45,8.34,8.34,0,0,1-2.11,6,12.11,12.11,0,0,1-6.39,3.17,12.25,12.25,0,0,1,3.44,2.82,29.65,29.65,0,0,1,2.93,4,31.13,31.13,0,0,1,2,3.81,7.43,7.43,0,0,1,.72,2.33,2.39,2.39,0,0,1-.42,1.31,3,3,0,0,1-1.15,1,3.66,3.66,0,0,1-1.69.38,3.26,3.26,0,0,1-1.91-.54,4.89,4.89,0,0,1-1.33-1.35c-.37-.55-.88-1.35-1.52-2.41l-2.71-4.51a24.68,24.68,0,0,0-2.6-3.78,6.45,6.45,0,0,0-2.34-1.78A8,8,0,0,0,61.17,131.86Zm3.87-14H58.8V127h6.06a17.06,17.06,0,0,0,4.1-.42,4.85,4.85,0,0,0,2.54-1.43,4.16,4.16,0,0,0,.87-2.79,4.19,4.19,0,0,0-2.66-4A14.23,14.23,0,0,0,65,117.84Z"/><path class="cls-6" d="M100.17,143.2v-.79a13.42,13.42,0,0,1-2.34,2.36,8.62,8.62,0,0,1-2.69,1.43,10.92,10.92,0,0,1-3.32.46,8.59,8.59,0,0,1-4-.93A6.76,6.76,0,0,1,85,143.16a11.45,11.45,0,0,1-1.16-5.7V125.15a4,4,0,0,1,.84-2.79,2.86,2.86,0,0,1,2.23-.92,3,3,0,0,1,2.28.93,3.94,3.94,0,0,1,.86,2.78v9.95a15.48,15.48,0,0,0,.37,3.63,4.36,4.36,0,0,0,1.31,2.3,3.75,3.75,0,0,0,2.56.83,5.23,5.23,0,0,0,3-.93,5.5,5.5,0,0,0,2-2.44,19.48,19.48,0,0,0,.53-5.78v-7.56a4,4,0,0,1,.86-2.78,3,3,0,0,1,2.26-.93,2.86,2.86,0,0,1,2.23.92,4,4,0,0,1,.84,2.79v18a3.83,3.83,0,0,1-.81,2.66,2.69,2.69,0,0,1-2.08.89,2.74,2.74,0,0,1-2.11-.92A3.77,3.77,0,0,1,100.17,143.2Z"/><path class="cls-6" d="M132.87,134.53v8.26a4.25,4.25,0,0,1-.89,2.94,3,3,0,0,1-2.34,1,2.92,2.92,0,0,1-2.29-1,4.25,4.25,0,0,1-.88-2.94v-9.9a30.85,30.85,0,0,0-.16-3.64,4,4,0,0,0-.86-2.13,2.77,2.77,0,0,0-2.24-.83c-2,0-3.37.69-4,2.09a14.7,14.7,0,0,0-1,6v8.4a4.28,4.28,0,0,1-.88,2.93,2.92,2.92,0,0,1-2.31,1,3,3,0,0,1-2.31-1,4.23,4.23,0,0,1-.9-2.93V125a3.86,3.86,0,0,1,.81-2.66,2.7,2.7,0,0,1,2.13-.91,2.89,2.89,0,0,1,2.13.85,3.18,3.18,0,0,1,.85,2.36v.59a10.89,10.89,0,0,1,3.46-2.85,9.24,9.24,0,0,1,4.1-.91,8.11,8.11,0,0,1,4,.94,7.32,7.32,0,0,1,2.78,2.82,10.74,10.74,0,0,1,3.37-2.84,8.64,8.64,0,0,1,4-.92,9.19,9.19,0,0,1,4.4,1,6.47,6.47,0,0,1,2.75,2.87,13.19,13.19,0,0,1,.8,5.31v12.13a4.25,4.25,0,0,1-.89,2.94,3,3,0,0,1-2.35,1,3,3,0,0,1-2.31-1,4.23,4.23,0,0,1-.9-2.93V132.34a23.07,23.07,0,0,0-.17-3.21,3.63,3.63,0,0,0-.92-2,2.93,2.93,0,0,0-2.28-.82,4.2,4.2,0,0,0-2.33.72,5,5,0,0,0-1.72,2A15.72,15.72,0,0,0,132.87,134.53Z"/><path class="cls-6" d="M159.19,115.74v9.5a14.26,14.26,0,0,1,3.57-2.79,9.49,9.49,0,0,1,4.51-1A9.94,9.94,0,0,1,172.7,123a9.64,9.64,0,0,1,3.62,4.26,15.62,15.62,0,0,1,1.29,6.61,17.67,17.67,0,0,1-.72,5.18,12.33,12.33,0,0,1-2.08,4.09,9.44,9.44,0,0,1-3.32,2.67,9.65,9.65,0,0,1-4.29,1,10.3,10.3,0,0,1-2.7-.34,8.18,8.18,0,0,1-2.15-.9,10.1,10.1,0,0,1-1.51-1.15c-.42-.4-1-1-1.65-1.78v.62a3.75,3.75,0,0,1-.84,2.65,2.82,2.82,0,0,1-2.14.9,2.66,2.66,0,0,1-2.11-.9,3.94,3.94,0,0,1-.79-2.65V116a4.56,4.56,0,0,1,.77-2.86,2.55,2.55,0,0,1,2.13-1,2.72,2.72,0,0,1,2.2.92A4,4,0,0,1,159.19,115.74Zm.29,18.47a8.56,8.56,0,0,0,1.7,5.7,5.56,5.56,0,0,0,4.45,2,5.08,5.08,0,0,0,4-2,8.92,8.92,0,0,0,1.7-5.84,11.51,11.51,0,0,0-.71-4.24,6.09,6.09,0,0,0-2-2.74,4.9,4.9,0,0,0-3-1,5.35,5.35,0,0,0-3.16,1,6.38,6.38,0,0,0-2.19,2.8A10.88,10.88,0,0,0,159.48,134.21Z"/><path class="cls-6" d="M182,142.93V116a4.22,4.22,0,0,1,.83-2.82,2.81,2.81,0,0,1,2.24-1,3,3,0,0,1,2.28,1,4,4,0,0,1,.87,2.83v27a4,4,0,0,1-.88,2.83,3,3,0,0,1-2.27,1,2.82,2.82,0,0,1-2.22-1A4.13,4.13,0,0,1,182,142.93Z"/><path class="cls-6" d="M212,135.6H199.81a8.23,8.23,0,0,0,.85,3.73,5.71,5.71,0,0,0,5.25,3.26,7.69,7.69,0,0,0,2-.26,6.8,6.8,0,0,0,1.78-.82,14.2,14.2,0,0,0,1.6-1.2c.48-.42,1.11-1,1.89-1.73a2,2,0,0,1,1.36-.41,2.29,2.29,0,0,1,1.55.52,1.87,1.87,0,0,1,.59,1.48,4,4,0,0,1-.66,2,7.67,7.67,0,0,1-2,2.17,11.43,11.43,0,0,1-3.35,1.72,14.51,14.51,0,0,1-4.63.68q-6,0-9.31-3.42T193.45,134a15.6,15.6,0,0,1,.82-5.11,11.45,11.45,0,0,1,2.39-4,10.4,10.4,0,0,1,3.88-2.58,13.86,13.86,0,0,1,5.1-.9,12.07,12.07,0,0,1,6.25,1.54,10.11,10.11,0,0,1,3.9,4,10.38,10.38,0,0,1,1.3,5c0,1.57-.45,2.58-1.35,3A8.22,8.22,0,0,1,212,135.6Zm-12.16-3.53h11.27a7.55,7.55,0,0,0-1.72-4.77,5.15,5.15,0,0,0-3.93-1.58,5,5,0,0,0-3.81,1.6A7.93,7.93,0,0,0,199.81,132.07Z"/><path class="cls-6" d="M57.49,172.78h1.29v-7q0-2.82.15-4.44a6.49,6.49,0,0,1,.83-2.76,5.32,5.32,0,0,1,2-2,5.56,5.56,0,0,1,2.87-.75,5.76,5.76,0,0,1,4,1.68,5,5,0,0,1,1.53,2.72,25.2,25.2,0,0,1,.32,4.57v8h4.29A5.45,5.45,0,0,1,78.57,174a3.85,3.85,0,0,1,1.31,3A3.39,3.39,0,0,1,78,180.29a12.3,12.3,0,0,1-5.35.94H70.49v21.53a34.92,34.92,0,0,0,.19,4.23,4.26,4.26,0,0,0,1,2.4,3.49,3.49,0,0,0,2.72.92,14.7,14.7,0,0,0,2.79-.36,14.82,14.82,0,0,1,2.75-.37,3.53,3.53,0,0,1,2.55,1.14,3.82,3.82,0,0,1,1.14,2.81q0,2.83-3.09,4.33c-2.06,1-5,1.51-8.88,1.51-3.66,0-6.44-.62-8.32-1.85a8.53,8.53,0,0,1-3.71-5.1,34.51,34.51,0,0,1-.88-8.71V181.23H57.23a5.58,5.58,0,0,1-3.86-1.2A3.92,3.92,0,0,1,52,177a3.77,3.77,0,0,1,1.4-3A6.08,6.08,0,0,1,57.49,172.78Z"/><path class="cls-6" d="M117.55,212.76a36.17,36.17,0,0,1-8.22,5,23,23,0,0,1-8.9,1.66,16.93,16.93,0,0,1-7.91-1.78,13,13,0,0,1-5.26-4.83,12.51,12.51,0,0,1-1.84-6.61,11.82,11.82,0,0,1,3-8.19,15.21,15.21,0,0,1,8.37-4.55q1.11-.25,5.53-1.16t7.57-1.65q3.15-.75,6.84-1.82-.21-4.64-1.86-6.8c-1.1-1.44-3.38-2.17-6.84-2.17a14.25,14.25,0,0,0-6.72,1.25,10.88,10.88,0,0,0-3.86,3.73c-1.07,1.66-1.83,2.75-2.27,3.28s-1.4.79-2.85.79A5,5,0,0,1,89,187.6a4.13,4.13,0,0,1-1.43-3.24,9.92,9.92,0,0,1,2.19-6,15.63,15.63,0,0,1,6.82-4.8,30.68,30.68,0,0,1,11.54-1.89q7.71,0,12.14,1.83a11.27,11.27,0,0,1,6.24,5.77,25.31,25.31,0,0,1,1.82,10.46q0,4.13,0,7t-.06,6.39a23.5,23.5,0,0,0,1.09,6.88,21.69,21.69,0,0,1,1.09,4.61,4.33,4.33,0,0,1-1.69,3.29,5.71,5.71,0,0,1-3.84,1.48,5.18,5.18,0,0,1-3.56-1.7A25.17,25.17,0,0,1,117.55,212.76Zm-.78-16.95a58.36,58.36,0,0,1-7.48,2c-3.28.7-5.54,1.21-6.8,1.54a9.32,9.32,0,0,0-3.6,1.93,4.94,4.94,0,0,0-1.72,4,5.92,5.92,0,0,0,2,4.53,7.46,7.46,0,0,0,5.27,1.87,13.7,13.7,0,0,0,6.42-1.53,10.21,10.21,0,0,0,4.31-3.92q1.57-2.66,1.58-8.75Z"/><path class="cls-6" d="M140.15,212.24V161.45a7.93,7.93,0,0,1,1.57-5.32,5.31,5.31,0,0,1,4.23-1.8,5.57,5.57,0,0,1,4.29,1.78,7.72,7.72,0,0,1,1.63,5.34v50.79a7.64,7.64,0,0,1-1.66,5.35,5.57,5.57,0,0,1-4.26,1.78,5.31,5.31,0,0,1-4.19-1.85A7.81,7.81,0,0,1,140.15,212.24Z"/><path class="cls-6" d="M193.13,214l-10.34-17-6.34,6v9.31a7.17,7.17,0,0,1-1.78,5.21,5.58,5.58,0,0,1-4.1,1.83,5.32,5.32,0,0,1-4.25-1.81,8,8,0,0,1-1.54-5.32V162.31a9.94,9.94,0,0,1,1.5-5.94,5,5,0,0,1,4.29-2,5.38,5.38,0,0,1,4.29,1.85,8.12,8.12,0,0,1,1.59,5.44V190l13.17-13.81a32,32,0,0,1,3.73-3.52,5.14,5.14,0,0,1,3.13-.94,5.08,5.08,0,0,1,3.65,1.39,4.65,4.65,0,0,1,1.45,3.5c0,1.71-1.58,4-4.76,6.86l-6.22,5.71,12,18.87c.89,1.4,1.53,2.47,1.91,3.2a4.41,4.41,0,0,1,.58,2.08,6.18,6.18,0,0,1-1.52,4.4,5.28,5.28,0,0,1-4,1.61,4.51,4.51,0,0,1-3.31-1.16A28.53,28.53,0,0,1,193.13,214Z"/></g></g></svg>